<?xml version="1.0" encoding="UTF-8" standalone="no"?><svg xmlns="http://www.w3.org/2000/svg" xmlns:xlink="http://www.w3.org/1999/xlink" contentScriptType="application/ecmascript" contentStyleType="text/css" height="751px" preserveAspectRatio="none" style="width:743px;height:751px;" version="1.1" viewBox="0 0 743 751" width="743px" zoomAndPan="magnify"><defs><filter height="300%" id="fpkyavs20qhut" width="300%" x="-1" y="-1"><feGaussianBlur result="blurOut" stdDeviation="2.0"/><feColorMatrix in="blurOut" result="blurOut2" type="matrix" values="0 0 0 0 0 0 0 0 0 0 0 0 0 0 0 0 0 0 .4 0"/><feOffset dx="4.0" dy="4.0" in="blurOut2" result="blurOut3"/><feBlend in="SourceGraphic" in2="blurOut3" mode="normal"/></filter></defs><g><rect fill="#FFFFFF" filter="url(#fpkyavs20qhut)" height="536.6641" style="stroke: #A80036; stroke-width: 1.0;" width="10" x="206" y="117.4297"/><rect fill="#FFFFFF" filter="url(#fpkyavs20qhut)" height="381.1328" style="stroke: #A80036; stroke-width: 1.0;" width="10" x="501" y="272.9609"/><rect fill="#FFFFFF" filter="url(#fpkyavs20qhut)" height="317" style="stroke: #000000; stroke-width: 2.0;" width="708" x="13" y="330.0938"/><rect fill="#FFFFFF" height="86.0703" style="stroke: none; stroke-width: 1.0;" width="708" x="13" y="561.0234"/><line style="stroke: #A80036; stroke-width: 1.0; stroke-dasharray: 5.0,5.0;" x1="60" x2="60" y1="86.2969" y2="664.0938"/><line style="stroke: #A80036; stroke-width: 1.0; stroke-dasharray: 5.0,5.0;" x1="211" x2="211" y1="86.2969" y2="664.0938"/><line style="stroke: #A80036; stroke-width: 1.0; stroke-dasharray: 5.0,5.0;" x1="505.5" x2="505.5" y1="86.2969" y2="664.0938"/><text fill="#000000" font-family="sans-serif" font-size="14" lengthAdjust="spacingAndGlyphs" textLength="68" x="23" y="82.9951">Customer</text><ellipse cx="60" cy="13" fill="#FEFECE" filter="url(#fpkyavs20qhut)" rx="8" ry="8" style="stroke: #A80036; stroke-width: 2.0;"/><path d="M60,21 L60,48 M47,29 L73,29 M60,48 L47,63 M60,48 L73,63 " fill="none" filter="url(#fpkyavs20qhut)" style="stroke: #A80036; stroke-width: 2.0;"/><text fill="#000000" font-family="sans-serif" font-size="14" lengthAdjust="spacingAndGlyphs" textLength="68" x="23" y="676.0889">Customer</text><ellipse cx="60" cy="689.3906" fill="#FEFECE" filter="url(#fpkyavs20qhut)" rx="8" ry="8" style="stroke: #A80036; stroke-width: 2.0;"/><path d="M60,697.3906 L60,724.3906 M47,705.3906 L73,705.3906 M60,724.3906 L47,739.3906 M60,724.3906 L73,739.3906 " fill="none" filter="url(#fpkyavs20qhut)" style="stroke: #A80036; stroke-width: 2.0;"/><rect fill="#FEFECE" filter="url(#fpkyavs20qhut)" height="30.2969" style="stroke: #A80036; stroke-width: 1.5;" width="44" x="187" y="51"/><text fill="#000000" font-family="sans-serif" font-size="14" lengthAdjust="spacingAndGlyphs" textLength="30" x="194" y="70.9951">ATM</text><rect fill="#FEFECE" filter="url(#fpkyavs20qhut)" height="30.2969" style="stroke: #A80036; stroke-width: 1.5;" width="44" x="187" y="663.0938"/><text fill="#000000" font-family="sans-serif" font-size="14" lengthAdjust="spacingAndGlyphs" textLength="30" x="194" y="683.0889">ATM</text><rect fill="#FEFECE" filter="url(#fpkyavs20qhut)" height="30.2969" style="stroke: #A80036; stroke-width: 1.5;" width="49" x="479.5" y="51"/><text fill="#000000" font-family="sans-serif" font-size="14" lengthAdjust="spacingAndGlyphs" textLength="35" x="486.5" y="70.9951">Bank</text><rect fill="#FEFECE" filter="url(#fpkyavs20qhut)" height="30.2969" style="stroke: #A80036; stroke-width: 1.5;" width="49" x="479.5" y="663.0938"/><text fill="#000000" font-family="sans-serif" font-size="14" lengthAdjust="spacingAndGlyphs" textLength="35" x="486.5" y="683.0889">Bank</text><rect fill="#FFFFFF" filter="url(#fpkyavs20qhut)" height="536.6641" style="stroke: #A80036; stroke-width: 1.0;" width="10" x="206" y="117.4297"/><rect fill="#FFFFFF" filter="url(#fpkyavs20qhut)" height="381.1328" style="stroke: #A80036; stroke-width: 1.0;" width="10" x="501" y="272.9609"/><polygon fill="#A80036" points="194,113.4297,204,117.4297,194,121.4297,198,117.4297" style="stroke: #A80036; stroke-width: 1.0;"/><line style="stroke: #A80036; stroke-width: 1.0;" x1="60" x2="200" y1="117.4297" y2="117.4297"/><text fill="#000000" font-family="sans-serif" font-size="13" lengthAdjust="spacingAndGlyphs" textLength="70" x="67" y="112.3638">Insert Card</text><line style="stroke: #A80036; stroke-width: 1.0;" x1="216" x2="258" y1="146.5625" y2="146.5625"/><line style="stroke: #A80036; stroke-width: 1.0;" x1="258" x2="258" y1="146.5625" y2="159.5625"/><line style="stroke: #A80036; stroke-width: 1.0;" x1="217" x2="258" y1="159.5625" y2="159.5625"/><polygon fill="#A80036" points="227,155.5625,217,159.5625,227,163.5625,223,159.5625" style="stroke: #A80036; stroke-width: 1.0;"/><text fill="#000000" font-family="sans-serif" font-size="13" lengthAdjust="spacingAndGlyphs" textLength="123" x="223" y="141.4966">Prompt 'ENTER PIN'</text><line style="stroke: #A80036; stroke-width: 1.0;" x1="216" x2="258" y1="188.6953" y2="188.6953"/><line style="stroke: #A80036; stroke-width: 1.0;" x1="258" x2="258" y1="188.6953" y2="201.6953"/><line style="stroke: #A80036; stroke-width: 1.0;" x1="217" x2="258" y1="201.6953" y2="201.6953"/><polygon fill="#A80036" points="227,197.6953,217,201.6953,227,205.6953,223,201.6953" style="stroke: #A80036; stroke-width: 1.0;"/><text fill="#000000" font-family="sans-serif" font-size="13" lengthAdjust="spacingAndGlyphs" textLength="232" x="223" y="183.6294">Retrieve Account Number from Card</text><line style="stroke: #A80036; stroke-width: 1.0;" x1="216" x2="258" y1="230.8281" y2="230.8281"/><line style="stroke: #A80036; stroke-width: 1.0;" x1="258" x2="258" y1="230.8281" y2="243.8281"/><line style="stroke: #A80036; stroke-width: 1.0;" x1="217" x2="258" y1="243.8281" y2="243.8281"/><polygon fill="#A80036" points="227,239.8281,217,243.8281,227,247.8281,223,243.8281" style="stroke: #A80036; stroke-width: 1.0;"/><text fill="#000000" font-family="sans-serif" font-size="13" lengthAdjust="spacingAndGlyphs" textLength="213" x="223" y="225.7622">Encrypt PIN and Account Number</text><polygon fill="#A80036" points="489,268.9609,499,272.9609,489,276.9609,493,272.9609" style="stroke: #A80036; stroke-width: 1.0;"/><line style="stroke: #A80036; stroke-width: 1.0;" x1="216" x2="495" y1="272.9609" y2="272.9609"/><text fill="#000000" font-family="sans-serif" font-size="13" lengthAdjust="spacingAndGlyphs" textLength="266" x="223" y="267.895">Send Encrypted PIN and Account Number</text><line style="stroke: #A80036; stroke-width: 1.0;" x1="511" x2="553" y1="302.0938" y2="302.0938"/><line style="stroke: #A80036; stroke-width: 1.0;" x1="553" x2="553" y1="302.0938" y2="315.0938"/><line style="stroke: #A80036; stroke-width: 1.0;" x1="512" x2="553" y1="315.0938" y2="315.0938"/><polygon fill="#A80036" points="522,311.0938,512,315.0938,522,319.0938,518,315.0938" style="stroke: #A80036; stroke-width: 1.0;"/><text fill="#000000" font-family="sans-serif" font-size="13" lengthAdjust="spacingAndGlyphs" textLength="213" x="518" y="297.0278">Verify Encrypted Account and PIN</text><path d="M13,330.0938 L77,330.0938 L77,337.0938 L67,347.0938 L13,347.0938 L13,330.0938 " fill="#EEEEEE" style="stroke: #000000; stroke-width: 1.0;"/><rect fill="none" height="317" style="stroke: #000000; stroke-width: 2.0;" width="708" x="13" y="330.0938"/><text fill="#000000" font-family="sans-serif" font-size="13" font-weight="bold" lengthAdjust="spacingAndGlyphs" textLength="19" x="28" y="343.1606">alt</text><text fill="#000000" font-family="sans-serif" font-size="11" font-weight="bold" lengthAdjust="spacingAndGlyphs" textLength="82" x="92" y="342.3042">[PIN Correct]</text><polygon fill="#A80036" points="227,364.3594,217,368.3594,227,372.3594,223,368.3594" style="stroke: #A80036; stroke-width: 1.0;"/><line style="stroke: #A80036; stroke-width: 1.0;" x1="221" x2="500" y1="368.3594" y2="368.3594"/><text fill="#000000" font-family="sans-serif" font-size="13" lengthAdjust="spacingAndGlyphs" textLength="196" x="233" y="363.2935">Send 'ENTER AMOUNT' Prompt</text><line style="stroke: #A80036; stroke-width: 1.0;" x1="216" x2="258" y1="397.4922" y2="397.4922"/><line style="stroke: #A80036; stroke-width: 1.0;" x1="258" x2="258" y1="397.4922" y2="410.4922"/><line style="stroke: #A80036; stroke-width: 1.0;" x1="217" x2="258" y1="410.4922" y2="410.4922"/><polygon fill="#A80036" points="227,406.4922,217,410.4922,227,414.4922,223,410.4922" style="stroke: #A80036; stroke-width: 1.0;"/><text fill="#000000" font-family="sans-serif" font-size="13" lengthAdjust="spacingAndGlyphs" textLength="159" x="223" y="392.4263">Prompt 'ENTER AMOUNT'</text><polygon fill="#A80036" points="489,435.625,499,439.625,489,443.625,493,439.625" style="stroke: #A80036; stroke-width: 1.0;"/><line style="stroke: #A80036; stroke-width: 1.0;" x1="216" x2="495" y1="439.625" y2="439.625"/><text fill="#000000" font-family="sans-serif" font-size="13" lengthAdjust="spacingAndGlyphs" textLength="193" x="223" y="434.5591">Withdraw Money from Account</text><line style="stroke: #A80036; stroke-width: 1.0;" x1="511" x2="553" y1="468.7578" y2="468.7578"/><line style="stroke: #A80036; stroke-width: 1.0;" x1="553" x2="553" y1="468.7578" y2="481.7578"/><line style="stroke: #A80036; stroke-width: 1.0;" x1="512" x2="553" y1="481.7578" y2="481.7578"/><polygon fill="#A80036" points="522,477.7578,512,481.7578,522,485.7578,518,481.7578" style="stroke: #A80036; stroke-width: 1.0;"/><text fill="#000000" font-family="sans-serif" font-size="13" lengthAdjust="spacingAndGlyphs" textLength="191" x="518" y="463.6919">Deduct Amount from Account</text><line style="stroke: #A80036; stroke-width: 1.0;" x1="216" x2="258" y1="510.8906" y2="510.8906"/><line style="stroke: #A80036; stroke-width: 1.0;" x1="258" x2="258" y1="510.8906" y2="523.8906"/><line style="stroke: #A80036; stroke-width: 1.0;" x1="217" x2="258" y1="523.8906" y2="523.8906"/><polygon fill="#A80036" points="227,519.8906,217,523.8906,227,527.8906,223,523.8906" style="stroke: #A80036; stroke-width: 1.0;"/><text fill="#000000" font-family="sans-serif" font-size="13" lengthAdjust="spacingAndGlyphs" textLength="114" x="223" y="505.8247">Dispense Amount</text><polygon fill="#A80036" points="71,549.0234,61,553.0234,71,557.0234,67,553.0234" style="stroke: #A80036; stroke-width: 1.0;"/><line style="stroke: #A80036; stroke-width: 1.0; stroke-dasharray: 2.0,2.0;" x1="65" x2="205" y1="553.0234" y2="553.0234"/><text fill="#000000" font-family="sans-serif" font-size="13" lengthAdjust="spacingAndGlyphs" textLength="122" x="77" y="547.9575">Dispensed Amount</text><line style="stroke: #000000; stroke-width: 1.0; stroke-dasharray: 2.0,2.0;" x1="13" x2="721" y1="562.0234" y2="562.0234"/><text fill="#000000" font-family="sans-serif" font-size="11" font-weight="bold" lengthAdjust="spacingAndGlyphs" textLength="92" x="18" y="572.2339">[PIN Incorrect]</text><polygon fill="#A80036" points="227,592.9609,217,596.9609,227,600.9609,223,596.9609" style="stroke: #A80036; stroke-width: 1.0;"/><line style="stroke: #A80036; stroke-width: 1.0; stroke-dasharray: 2.0,2.0;" x1="221" x2="500" y1="596.9609" y2="596.9609"/><text fill="#000000" font-family="sans-serif" font-size="13" lengthAdjust="spacingAndGlyphs" textLength="81" x="233" y="591.895">PIN Incorrect</text><line style="stroke: #A80036; stroke-width: 1.0;" x1="216" x2="258" y1="626.0938" y2="626.0938"/><line style="stroke: #A80036; stroke-width: 1.0;" x1="258" x2="258" y1="626.0938" y2="639.0938"/><line style="stroke: #A80036; stroke-width: 1.0;" x1="217" x2="258" y1="639.0938" y2="639.0938"/><polygon fill="#A80036" points="227,635.0938,217,639.0938,227,643.0938,223,639.0938" style="stroke: #A80036; stroke-width: 1.0;"/><text fill="#000000" font-family="sans-serif" font-size="13" lengthAdjust="spacingAndGlyphs" textLength="137" x="223" y="621.0278">Display 'PIN Incorrect'</text><!--MD5=[b10a52bb7c8ee0d77d7ccfc0585e701e]
@startuml
actor Customer
participant ATM
participant Bank

Customer -> ATM: Insert Card
activate ATM

ATM -> ATM: Prompt 'ENTER PIN'
ATM -> ATM: Retrieve Account Number from Card
ATM -> ATM: Encrypt PIN and Account Number
ATM -> Bank: Send Encrypted PIN and Account Number
activate Bank

Bank -> Bank: Verify Encrypted Account and PIN
alt PIN Correct
    Bank -> ATM: Send 'ENTER AMOUNT' Prompt
    ATM -> ATM: Prompt 'ENTER AMOUNT'
    ATM -> Bank: Withdraw Money from Account
    Bank -> Bank: Deduct Amount from Account
    ATM -> ATM: Dispense Amount
    ATM - -> Customer: Dispensed Amount
else PIN Incorrect
    Bank - -> ATM: PIN Incorrect
    ATM -> ATM: Display 'PIN Incorrect'
end

deactivate Bank
deactivate ATM
@enduml

PlantUML version 1.2020.08(Sun Apr 26 14:08:22 UTC 2020)
(GPL source distribution)
Java Runtime: OpenJDK Runtime Environment
JVM: OpenJDK 64-Bit Server VM
Java Version: 1.8.0_382-heroku-b05
Operating System: Linux
Default Encoding: UTF-8
Language: en
Country: US
--></g></svg>