<?xml version="1.0" encoding="UTF-8" standalone="no"?><svg xmlns="http://www.w3.org/2000/svg" xmlns:xlink="http://www.w3.org/1999/xlink" contentScriptType="application/ecmascript" contentStyleType="text/css" height="455px" preserveAspectRatio="none" style="width:552px;height:455px;" version="1.1" viewBox="0 0 552 455" width="552px" zoomAndPan="magnify"><defs><filter height="300%" id="fwzz6diei9nk9" width="300%" x="-1" y="-1"><feGaussianBlur result="blurOut" stdDeviation="2.0"/><feColorMatrix in="blurOut" result="blurOut2" type="matrix" values="0 0 0 0 0 0 0 0 0 0 0 0 0 0 0 0 0 0 .4 0"/><feOffset dx="4.0" dy="4.0" in="blurOut2" result="blurOut3"/><feBlend in="SourceGraphic" in2="blurOut3" mode="normal"/></filter></defs><g><rect fill="#FFFFFF" filter="url(#fwzz6diei9nk9)" height="233.0625" style="stroke: #A80036; stroke-width: 1.0;" width="10" x="143.5" y="117.4297"/><rect fill="#FFFFFF" filter="url(#fwzz6diei9nk9)" height="174.7969" style="stroke: #A80036; stroke-width: 1.0;" width="10" x="288.5" y="175.6953"/><rect fill="#FFFFFF" filter="url(#fwzz6diei9nk9)" height="145.6641" style="stroke: #A80036; stroke-width: 1.0;" width="10" x="451.5" y="146.5625"/><line style="stroke: #A80036; stroke-width: 1.0; stroke-dasharray: 5.0,5.0;" x1="33" x2="33" y1="86.2969" y2="368.4922"/><line style="stroke: #A80036; stroke-width: 1.0; stroke-dasharray: 5.0,5.0;" x1="148.5" x2="148.5" y1="86.2969" y2="368.4922"/><line style="stroke: #A80036; stroke-width: 1.0; stroke-dasharray: 5.0,5.0;" x1="293" x2="293" y1="86.2969" y2="368.4922"/><line style="stroke: #A80036; stroke-width: 1.0; stroke-dasharray: 5.0,5.0;" x1="456" x2="456" y1="86.2969" y2="368.4922"/><text fill="#000000" font-family="sans-serif" font-size="14" lengthAdjust="spacingAndGlyphs" textLength="45" x="8" y="82.9951">Trader</text><ellipse cx="33.5" cy="13" fill="#FEFECE" filter="url(#fwzz6diei9nk9)" rx="8" ry="8" style="stroke: #A80036; stroke-width: 2.0;"/><path d="M33.5,21 L33.5,48 M20.5,29 L46.5,29 M33.5,48 L20.5,63 M33.5,48 L46.5,63 " fill="none" filter="url(#fwzz6diei9nk9)" style="stroke: #A80036; stroke-width: 2.0;"/><text fill="#000000" font-family="sans-serif" font-size="14" lengthAdjust="spacingAndGlyphs" textLength="45" x="8" y="380.4873">Trader</text><ellipse cx="33.5" cy="393.7891" fill="#FEFECE" filter="url(#fwzz6diei9nk9)" rx="8" ry="8" style="stroke: #A80036; stroke-width: 2.0;"/><path d="M33.5,401.7891 L33.5,428.7891 M20.5,409.7891 L46.5,409.7891 M33.5,428.7891 L20.5,443.7891 M33.5,428.7891 L46.5,443.7891 " fill="none" filter="url(#fwzz6diei9nk9)" style="stroke: #A80036; stroke-width: 2.0;"/><rect fill="#FEFECE" filter="url(#fwzz6diei9nk9)" height="30.2969" style="stroke: #A80036; stroke-width: 1.5;" width="98" x="97.5" y="51"/><text fill="#000000" font-family="sans-serif" font-size="14" lengthAdjust="spacingAndGlyphs" textLength="84" x="104.5" y="70.9951">ForexBroker</text><rect fill="#FEFECE" filter="url(#fwzz6diei9nk9)" height="30.2969" style="stroke: #A80036; stroke-width: 1.5;" width="98" x="97.5" y="367.4922"/><text fill="#000000" font-family="sans-serif" font-size="14" lengthAdjust="spacingAndGlyphs" textLength="84" x="104.5" y="387.4873">ForexBroker</text><rect fill="#FEFECE" filter="url(#fwzz6diei9nk9)" height="30.2969" style="stroke: #A80036; stroke-width: 1.5;" width="125" x="229" y="51"/><text fill="#000000" font-family="sans-serif" font-size="14" lengthAdjust="spacingAndGlyphs" textLength="111" x="236" y="70.9951">LiquidityProvider</text><rect fill="#FEFECE" filter="url(#fwzz6diei9nk9)" height="30.2969" style="stroke: #A80036; stroke-width: 1.5;" width="125" x="229" y="367.4922"/><text fill="#000000" font-family="sans-serif" font-size="14" lengthAdjust="spacingAndGlyphs" textLength="111" x="236" y="387.4873">LiquidityProvider</text><rect fill="#FEFECE" filter="url(#fwzz6diei9nk9)" height="30.2969" style="stroke: #A80036; stroke-width: 1.5;" width="173" x="368" y="51"/><text fill="#000000" font-family="sans-serif" font-size="14" lengthAdjust="spacingAndGlyphs" textLength="159" x="375" y="70.9951">TradeExecutionSystem</text><rect fill="#FEFECE" filter="url(#fwzz6diei9nk9)" height="30.2969" style="stroke: #A80036; stroke-width: 1.5;" width="173" x="368" y="367.4922"/><text fill="#000000" font-family="sans-serif" font-size="14" lengthAdjust="spacingAndGlyphs" textLength="159" x="375" y="387.4873">TradeExecutionSystem</text><rect fill="#FFFFFF" filter="url(#fwzz6diei9nk9)" height="233.0625" style="stroke: #A80036; stroke-width: 1.0;" width="10" x="143.5" y="117.4297"/><rect fill="#FFFFFF" filter="url(#fwzz6diei9nk9)" height="174.7969" style="stroke: #A80036; stroke-width: 1.0;" width="10" x="288.5" y="175.6953"/><rect fill="#FFFFFF" filter="url(#fwzz6diei9nk9)" height="145.6641" style="stroke: #A80036; stroke-width: 1.0;" width="10" x="451.5" y="146.5625"/><polygon fill="#A80036" points="131.5,113.4297,141.5,117.4297,131.5,121.4297,135.5,117.4297" style="stroke: #A80036; stroke-width: 1.0;"/><line style="stroke: #A80036; stroke-width: 1.0;" x1="33.5" x2="137.5" y1="117.4297" y2="117.4297"/><text fill="#000000" font-family="sans-serif" font-size="13" lengthAdjust="spacingAndGlyphs" textLength="34" x="40.5" y="112.3638">Login</text><polygon fill="#A80036" points="131.5,142.5625,141.5,146.5625,131.5,150.5625,135.5,146.5625" style="stroke: #A80036; stroke-width: 1.0;"/><line style="stroke: #A80036; stroke-width: 1.0;" x1="33.5" x2="137.5" y1="146.5625" y2="146.5625"/><text fill="#000000" font-family="sans-serif" font-size="13" lengthAdjust="spacingAndGlyphs" textLength="86" x="40.5" y="141.4966">Submit Order</text><polygon fill="#A80036" points="276.5,171.6953,286.5,175.6953,276.5,179.6953,280.5,175.6953" style="stroke: #A80036; stroke-width: 1.0;"/><line style="stroke: #A80036; stroke-width: 1.0;" x1="153.5" x2="282.5" y1="175.6953" y2="175.6953"/><text fill="#000000" font-family="sans-serif" font-size="13" lengthAdjust="spacingAndGlyphs" textLength="116" x="160.5" y="170.6294">Request for Quote</text><polygon fill="#A80036" points="164.5,200.8281,154.5,204.8281,164.5,208.8281,160.5,204.8281" style="stroke: #A80036; stroke-width: 1.0;"/><line style="stroke: #A80036; stroke-width: 1.0; stroke-dasharray: 2.0,2.0;" x1="158.5" x2="287.5" y1="204.8281" y2="204.8281"/><text fill="#000000" font-family="sans-serif" font-size="13" lengthAdjust="spacingAndGlyphs" textLength="39" x="170.5" y="199.7622">Quote</text><polygon fill="#A80036" points="439.5,229.9609,449.5,233.9609,439.5,237.9609,443.5,233.9609" style="stroke: #A80036; stroke-width: 1.0;"/><line style="stroke: #A80036; stroke-width: 1.0; stroke-dasharray: 2.0,2.0;" x1="153.5" x2="445.5" y1="233.9609" y2="233.9609"/><text fill="#000000" font-family="sans-serif" font-size="13" lengthAdjust="spacingAndGlyphs" textLength="91" x="160.5" y="228.895">Execute Order</text><polygon fill="#A80036" points="309.5,259.0938,299.5,263.0938,309.5,267.0938,305.5,263.0938" style="stroke: #A80036; stroke-width: 1.0;"/><line style="stroke: #A80036; stroke-width: 1.0; stroke-dasharray: 2.0,2.0;" x1="303.5" x2="450.5" y1="263.0938" y2="263.0938"/><text fill="#000000" font-family="sans-serif" font-size="13" lengthAdjust="spacingAndGlyphs" textLength="91" x="315.5" y="258.0278">Execute Trade</text><polygon fill="#A80036" points="44.5,288.2266,34.5,292.2266,44.5,296.2266,40.5,292.2266" style="stroke: #A80036; stroke-width: 1.0;"/><line style="stroke: #A80036; stroke-width: 1.0;" x1="38.5" x2="455.5" y1="292.2266" y2="292.2266"/><text fill="#000000" font-family="sans-serif" font-size="13" lengthAdjust="spacingAndGlyphs" textLength="122" x="50.5" y="287.1606">Trade Confirmation</text><polygon fill="#A80036" points="131.5,317.3594,141.5,321.3594,131.5,325.3594,135.5,321.3594" style="stroke: #A80036; stroke-width: 1.0;"/><line style="stroke: #A80036; stroke-width: 1.0;" x1="33.5" x2="137.5" y1="321.3594" y2="321.3594"/><text fill="#000000" font-family="sans-serif" font-size="13" lengthAdjust="spacingAndGlyphs" textLength="44" x="40.5" y="316.2935">Logout</text><polygon fill="#A80036" points="44.5,346.4922,34.5,350.4922,44.5,354.4922,40.5,350.4922" style="stroke: #A80036; stroke-width: 1.0;"/><line style="stroke: #A80036; stroke-width: 1.0; stroke-dasharray: 2.0,2.0;" x1="38.5" x2="147.5" y1="350.4922" y2="350.4922"/><text fill="#000000" font-family="sans-serif" font-size="13" lengthAdjust="spacingAndGlyphs" textLength="74" x="50.5" y="345.4263">Logged Out</text><!--MD5=[317711c3b3bacead88d713e88860b461]
@startuml
actor Trader
participant ForexBroker
participant LiquidityProvider
participant TradeExecutionSystem

Trader -> ForexBroker: Login
activate ForexBroker

Trader -> ForexBroker: Submit Order
activate TradeExecutionSystem
ForexBroker -> LiquidityProvider: Request for Quote
activate LiquidityProvider

LiquidityProvider - -> ForexBroker: Quote
ForexBroker - -> TradeExecutionSystem: Execute Order
TradeExecutionSystem - -> LiquidityProvider: Execute Trade

TradeExecutionSystem -> Trader: Trade Confirmation
deactivate TradeExecutionSystem

Trader -> ForexBroker: Logout
ForexBroker - -> Trader: Logged Out

deactivate ForexBroker
deactivate LiquidityProvider
@enduml

PlantUML version 1.2020.08(Sun Apr 26 14:08:22 UTC 2020)
(GPL source distribution)
Java Runtime: OpenJDK Runtime Environment
JVM: OpenJDK 64-Bit Server VM
Java Version: 1.8.0_382-heroku-b05
Operating System: Linux
Default Encoding: UTF-8
Language: en
Country: US
--></g></svg>